ffmpeg started on 2025-06-03 at 20:06:03
Report written to "D:\Convert\FFMetrics\reports\ssim_report-6.txt"
Log level: 32
Command line:
ffmpeg -hide_banner -nostdin -i "G:\\\xc0\xed\xe8\xec\xe5\\\xce\xed\xe3\xee\xe8\xed\xe3\xe8\\!_36_\xce\xf1\xe5\xed\xfc_2024\\DreamCast\\\xc1\xe0\xf8\xed\xff \xc1\xee\xe3\xe0\\\xd2\xc2-2\\[DC] Kami no Tou - Ouji no Kikan - 20_Telegram_HEVC.mkv" -i "G:\\\xc0\xed\xe8\xec\xe5\\\xce\xed\xe3\xee\xe8\xed\xe3\xe8\\!_36_\xce\xf1\xe5\xed\xfc_2024\\DreamCast\\\xc1\xe0\xf8\xed\xff \xc1\xee\xe3\xe0\\\xd2\xc2-2\\[DC] Kami no Tou - Ouji no Kikan - 20_Telegram.mp4" -lavfi "[0:v]settb=AVTB,setpts=PTS-STARTPTS,format=pix_fmts=yuv420p10,fps=24000/1001,scale=1920:1080:flags=bicubic[main];[1:v]settb=AVTB,setpts=PTS-STARTPTS,format=pix_fmts=yuv420p,fps=24000/1001,scale=1920:1080:flags=bicubic[ref];[main][ref]ssim=eof_action=endall:stats_file='D\\:/Convert/FFMetrics/logs/ssim_logfile-6.txt'" -f null -
Input #0, matroska,webm, from 'G:\Аниме\Онгоинги\!_36_Осень_2024\DreamCast\Башня Бога\ТВ-2\[DC] Kami no Tou - Ouji no Kikan - 20_Telegram_HEVC.mkv':
  Metadata:
    COMPATIBLE_BRANDS: isomiso2avc1mp41
    MAJOR_BRAND     : isom
    MINOR_VERSION   : 512
    ENCODER         : Lavf61.7.100
  Duration: 00:23:49.42, start: -0.021000, bitrate: 1315 kb/s
  Stream #0:0: Video: hevc (Main 10), yuv420p10le(tv, bt709, progressive), 1920x1080 [SAR 1:1 DAR 16:9], 23.98 fps, 23.98 tbr, 1k tbn (default)
      Metadata:
        HANDLER_NAME    : VideoHandler
        VENDOR_ID       : [0][0][0][0]
        ENCODER         : Lavc61.19.100 libx265
        BPS             : 1119174
        DURATION        : 00:23:47.550708333
        NUMBER_OF_FRAMES: 34227
        NUMBER_OF_BYTES : 199709717
        _STATISTICS_WRITING_APP: mkvpropedit v66.0.0 ('Josie') 64-bit
        _STATISTICS_WRITING_DATE_UTC: 2025-05-29 19:35:30
        _STATISTICS_TAGS: BPS DURATION NUMBER_OF_FRAMES NUMBER_OF_BYTES
  Stream #0:1: Audio: aac (LC), 48000 Hz, stereo, fltp (default)
      Metadata:
        HANDLER_NAME    : SoundHandler
        VENDOR_ID       : [0][0][0][0]
        ENCODER         : Lavc61.19.100 aac
        BPS             : 193493
        DURATION        : 00:23:49.418000000
        NUMBER_OF_FRAMES: 67005
        NUMBER_OF_BYTES : 34572849
        _STATISTICS_WRITING_APP: mkvpropedit v66.0.0 ('Josie') 64-bit
        _STATISTICS_WRITING_DATE_UTC: 2025-05-29 19:35:30
        _STATISTICS_TAGS: BPS DURATION NUMBER_OF_FRAMES NUMBER_OF_BYTES
Input #1, mov,mp4,m4a,3gp,3g2,mj2, from 'G:\Аниме\Онгоинги\!_36_Осень_2024\DreamCast\Башня Бога\ТВ-2\[DC] Kami no Tou - Ouji no Kikan - 20_Telegram.mp4':
  Metadata:
    major_brand     : isom
    minor_version   : 512
    compatible_brands: isomiso2avc1mp41
    encoder         : Lavf61.1.100
  Duration: 00:23:49.39, start: 0.000000, bitrate: 3706 kb/s
  Stream #1:0[0x1](und): Video: h264 (High) (avc1 / 0x31637661), yuv420p(tv, bt709, progressive), 1920x1080 [SAR 1:1 DAR 16:9], 3562 kb/s, 23.98 fps, 23.98 tbr, 24k tbn (default)
      Metadata:
        handler_name    : VideoHandler
        vendor_id       : [0][0][0][0]
        encoder         : Lavc61.3.100 h264_qsv
  Stream #1:1[0x2](und): Audio: aac (HE-AACv2) (mp4a / 0x6134706D), 48000 Hz, stereo, fltp, 144 kb/s (default)
      Metadata:
        handler_name    : SoundHandler
        vendor_id       : [0][0][0][0]
Stream mapping:
  Stream #0:0 (hevc) -> settb:default
  Stream #1:0 (h264) -> settb:default
  ssim:default -> Stream #0:0 (wrapped_avframe)
  Stream #0:1 -> #0:1 (aac (native) -> pcm_s16le (native))
Output #0, null, to 'pipe:':
  Metadata:
    COMPATIBLE_BRANDS: isomiso2avc1mp41
    MAJOR_BRAND     : isom
    MINOR_VERSION   : 512
    encoder         : Lavf61.7.100
  Stream #0:0: Video: wrapped_avframe, yuv420p10le(tv, bt709, progressive), 1920x1080 [SAR 1:1 DAR 16:9], q=2-31, 200 kb/s, 23.98 fps, 23.98 tbn
      Metadata:
        encoder         : Lavc61.19.100 wrapped_avframe
  Stream #0:1: Audio: pcm_s16le, 48000 Hz, stereo, s16, 1536 kb/s (default)
      Metadata:
        HANDLER_NAME    : SoundHandler
        VENDOR_ID       : [0][0][0][0]
        _STATISTICS_TAGS: BPS DURATION NUMBER_OF_FRAMES NUMBER_OF_BYTES
        BPS             : 193493
        DURATION        : 00:23:49.418000000
        NUMBER_OF_FRAMES: 67005
        NUMBER_OF_BYTES : 34572849
        _STATISTICS_WRITING_APP: mkvpropedit v66.0.0 ('Josie') 64-bit
        _STATISTICS_WRITING_DATE_UTC: 2025-05-29 19:35:30
        encoder         : Lavc61.19.100 pcm_s16le
frame=  174 fps=0.0 q=-0.0 size=N/A time=00:00:07.25 bitrate=N/A speed=13.9x    frame=  416 fps=404 q=-0.0 size=N/A time=00:00:17.35 bitrate=N/A speed=16.8x    frame=  693 fps=445 q=-0.0 size=N/A time=00:00:28.90 bitrate=N/A speed=18.6x    frame=  976 fps=473 q=-0.0 size=N/A time=00:00:40.70 bitrate=N/A speed=19.7x    frame= 1259 fps=487 q=-0.0 size=N/A time=00:00:52.51 bitrate=N/A speed=20.3x    frame= 1522 fps=492 q=-0.0 size=N/A time=00:01:03.48 bitrate=N/A speed=20.5x    frame= 1791 fps=495 q=-0.0 size=N/A time=00:01:14.69 bitrate=N/A speed=20.7x    frame= 2040 fps=495 q=-0.0 size=N/A time=00:01:25.08 bitrate=N/A speed=20.6x    frame= 2322 fps=500 q=-0.0 size=N/A time=00:01:36.84 bitrate=N/A speed=20.9x    frame= 2596 fps=504 q=-0.0 size=N/A time=00:01:48.27 bitrate=N/A speed=  21x    frame= 2878 fps=507 q=-0.0 size=N/A time=00:02:00.03 bitrate=N/A speed=21.2x    frame= 3112 fps=503 q=-0.0 size=N/A time=00:02:09.79 bitrate=N/A speed=  21x    frame= 3371 fps=503 q=-0.0 size=N/A time=00:02:20.59 bitrate=N/A speed=  21x    frame= 3643 fps=504 q=-0.0 size=N/A time=00:02:31.94 bitrate=N/A speed=  21x    frame= 3893 fps=503 q=-0.0 size=N/A time=00:02:42.37 bitrate=N/A speed=  21x    frame= 4156 fps=503 q=-0.0 size=N/A time=00:02:53.33 bitrate=N/A speed=  21x    frame= 4425 fps=505 q=-0.0 size=N/A time=00:03:04.55 bitrate=N/A speed=21.1x    frame= 4694 fps=505 q=-0.0 size=N/A time=00:03:15.77 bitrate=N/A speed=21.1x    frame= 4962 fps=507 q=-0.0 size=N/A time=00:03:26.95 bitrate=N/A speed=21.1x    frame= 5242 fps=508 q=-0.0 size=N/A time=00:03:38.63 bitrate=N/A speed=21.2x    frame= 5534 fps=511 q=-0.0 size=N/A time=00:03:50.81 bitrate=N/A speed=21.3x    frame= 5817 fps=513 q=-0.0 size=N/A time=00:04:02.61 bitrate=N/A speed=21.4x    frame= 6035 fps=509 q=-0.0 size=N/A time=00:04:11.70 bitrate=N/A speed=21.2x    frame= 6269 fps=506 q=-0.0 size=N/A time=00:04:21.46 bitrate=N/A speed=21.1x    frame= 6485 fps=503 q=-0.0 size=N/A time=00:04:30.47 bitrate=N/A speed=  21x    frame= 6719 fps=501 q=-0.0 size=N/A time=00:04:40.23 bitrate=N/A speed=20.9x    frame= 6946 fps=499 q=-0.0 size=N/A time=00:04:49.70 bitrate=N/A speed=20.8x    frame= 7207 fps=499 q=-0.0 size=N/A time=00:05:00.59 bitrate=N/A speed=20.8x    frame= 7423 fps=497 q=-0.0 size=N/A time=00:05:09.60 bitrate=N/A speed=20.7x    frame= 7638 fps=494 q=-0.0 size=N/A time=00:05:18.56 bitrate=N/A speed=20.6x    frame= 7847 fps=491 q=-0.0 size=N/A time=00:05:27.28 bitrate=N/A speed=20.5x    frame= 8086 fps=489 q=-0.0 size=N/A time=00:05:37.25 bitrate=N/A speed=20.4x    frame= 8325 fps=489 q=-0.0 size=N/A time=00:05:47.22 bitrate=N/A speed=20.4x    frame= 8514 fps=485 q=-0.0 size=N/A time=00:05:55.10 bitrate=N/A speed=20.2x    frame= 8638 fps=478 q=-0.0 size=N/A time=00:06:00.27 bitrate=N/A speed=19.9x    frame= 8777 fps=472 q=-0.0 size=N/A time=00:06:06.07 bitrate=N/A speed=19.7x    frame= 8946 fps=468 q=-0.0 size=N/A time=00:06:13.12 bitrate=N/A speed=19.5x    frame= 9106 fps=464 q=-0.0 size=N/A time=00:06:19.79 bitrate=N/A speed=19.3x    frame= 9355 fps=464 q=-0.0 size=N/A time=00:06:30.18 bitrate=N/A speed=19.4x    frame= 9599 fps=464 q=-0.0 size=N/A time=00:06:40.35 bitrate=N/A speed=19.4x    frame= 9862 fps=466 q=-0.0 size=N/A time=00:06:51.32 bitrate=N/A speed=19.4x    frame=10133 fps=467 q=-0.0 size=N/A time=00:07:02.63 bitrate=N/A speed=19.5x    frame=10382 fps=467 q=-0.0 size=N/A time=00:07:13.01 bitrate=N/A speed=19.5x    frame=10622 fps=467 q=-0.0 size=N/A time=00:07:23.02 bitrate=N/A speed=19.5x    frame=10850 fps=466 q=-0.0 size=N/A time=00:07:32.53 bitrate=N/A speed=19.5x    frame=11055 fps=465 q=-0.0 size=N/A time=00:07:41.08 bitrate=N/A speed=19.4x    frame=11322 fps=466 q=-0.0 size=N/A time=00:07:52.22 bitrate=N/A speed=19.4x    frame=11610 fps=468 q=-0.0 size=N/A time=00:08:04.23 bitrate=N/A speed=19.5x    frame=11885 fps=469 q=-0.0 size=N/A time=00:08:15.70 bitrate=N/A speed=19.6x    frame=12155 fps=471 q=-0.0 size=N/A time=00:08:26.96 bitrate=N/A speed=19.6x    frame=12378 fps=470 q=-0.0 size=N/A time=00:08:36.26 bitrate=N/A speed=19.6x    frame=12612 fps=469 q=-0.0 size=N/A time=00:08:46.02 bitrate=N/A speed=19.6x    frame=12789 fps=467 q=-0.0 size=N/A time=00:08:53.40 bitrate=N/A speed=19.5x    frame=13015 fps=466 q=-0.0 size=N/A time=00:09:02.83 bitrate=N/A speed=19.5x    frame=13234 fps=466 q=-0.0 size=N/A time=00:09:11.96 bitrate=N/A speed=19.4x    frame=13467 fps=466 q=-0.0 size=N/A time=00:09:21.68 bitrate=N/A speed=19.4x    frame=13666 fps=464 q=-0.0 size=N/A time=00:09:29.98 bitrate=N/A speed=19.4x    frame=13874 fps=463 q=-0.0 size=N/A time=00:09:38.66 bitrate=N/A speed=19.3x    frame=14100 fps=463 q=-0.0 size=N/A time=00:09:48.08 bitrate=N/A speed=19.3x    frame=14370 fps=464 q=-0.0 size=N/A time=00:09:59.34 bitrate=N/A speed=19.3x    frame=14614 fps=464 q=-0.0 size=N/A time=00:10:09.52 bitrate=N/A speed=19.4x    frame=14880 fps=465 q=-0.0 size=N/A time=00:10:20.62 bitrate=N/A speed=19.4x    frame=15127 fps=465 q=-0.0 size=N/A time=00:10:30.92 bitrate=N/A speed=19.4x    frame=15405 fps=466 q=-0.0 size=N/A time=00:10:42.51 bitrate=N/A speed=19.4x    frame=15682 fps=467 q=-0.0 size=N/A time=00:10:54.07 bitrate=N/A speed=19.5x    frame=15964 fps=468 q=-0.0 size=N/A time=00:11:05.83 bitrate=N/A speed=19.5x    frame=16235 fps=469 q=-0.0 size=N/A time=00:11:17.13 bitrate=N/A speed=19.6x    frame=16516 fps=470 q=-0.0 size=N/A time=00:11:28.85 bitrate=N/A speed=19.6x    frame=16783 fps=471 q=-0.0 size=N/A time=00:11:39.99 bitrate=N/A speed=19.7x    frame=17012 fps=471 q=-0.0 size=N/A time=00:11:49.54 bitrate=N/A speed=19.6x    frame=17259 fps=471 q=-0.0 size=N/A time=00:11:59.84 bitrate=N/A speed=19.6x    frame=17489 fps=470 q=-0.0 size=N/A time=00:12:09.43 bitrate=N/A speed=19.6x    frame=17767 fps=471 q=-0.0 size=N/A time=00:12:21.03 bitrate=N/A speed=19.7x    frame=18059 fps=473 q=-0.0 size=N/A time=00:12:33.21 bitrate=N/A speed=19.7x    frame=18305 fps=473 q=-0.0 size=N/A time=00:12:43.47 bitrate=N/A speed=19.7x    frame=18567 fps=473 q=-0.0 size=N/A time=00:12:54.39 bitrate=N/A speed=19.7x    frame=18816 fps=473 q=-0.0 size=N/A time=00:13:04.78 bitrate=N/A speed=19.7x    frame=19088 fps=474 q=-0.0 size=N/A time=00:13:16.12 bitrate=N/A speed=19.8x    frame=19377 fps=475 q=-0.0 size=N/A time=00:13:28.18 bitrate=N/A speed=19.8x    frame=19652 fps=476 q=-0.0 size=N/A time=00:13:39.65 bitrate=N/A speed=19.8x    frame=19896 fps=476 q=-0.0 size=N/A time=00:13:49.82 bitrate=N/A speed=19.8x    frame=20150 fps=476 q=-0.0 size=N/A time=00:14:00.42 bitrate=N/A speed=19.9x    frame=20413 fps=476 q=-0.0 size=N/A time=00:14:11.39 bitrate=N/A speed=19.9x    frame=20667 fps=477 q=-0.0 size=N/A time=00:14:21.98 bitrate=N/A speed=19.9x    frame=20948 fps=477 q=-0.0 size=N/A time=00:14:33.70 bitrate=N/A speed=19.9x    frame=21198 fps=478 q=-0.0 size=N/A time=00:14:44.13 bitrate=N/A speed=19.9x    frame=21438 fps=477 q=-0.0 size=N/A time=00:14:54.14 bitrate=N/A speed=19.9x    frame=21677 fps=477 q=-0.0 size=N/A time=00:15:04.11 bitrate=N/A speed=19.9x    frame=21930 fps=477 q=-0.0 size=N/A time=00:15:14.66 bitrate=N/A speed=19.9x    frame=22185 fps=478 q=-0.0 size=N/A time=00:15:25.29 bitrate=N/A speed=19.9x    frame=22440 fps=478 q=-0.0 size=N/A time=00:15:35.93 bitrate=N/A speed=19.9x    frame=22669 fps=477 q=-0.0 size=N/A time=00:15:45.48 bitrate=N/A speed=19.9x    frame=22947 fps=478 q=-0.0 size=N/A time=00:15:57.08 bitrate=N/A speed=19.9x    frame=23233 fps=479 q=-0.0 size=N/A time=00:16:09.00 bitrate=N/A speed=  20x    frame=23484 fps=479 q=-0.0 size=N/A time=00:16:19.47 bitrate=N/A speed=  20x    frame=23721 fps=479 q=-0.0 size=N/A time=00:16:29.36 bitrate=N/A speed=  20x    frame=23948 fps=478 q=-0.0 size=N/A time=00:16:38.83 bitrate=N/A speed=  20x    frame=24180 fps=478 q=-0.0 size=N/A time=00:16:48.50 bitrate=N/A speed=19.9x    frame=24433 fps=478 q=-0.0 size=N/A time=00:16:59.05 bitrate=N/A speed=19.9x    frame=24674 fps=478 q=-0.0 size=N/A time=00:17:09.11 bitrate=N/A speed=19.9x    frame=24901 fps=478 q=-0.0 size=N/A time=00:17:18.57 bitrate=N/A speed=19.9x    frame=25154 fps=478 q=-0.0 size=N/A time=00:17:29.13 bitrate=N/A speed=19.9x    frame=25411 fps=478 q=-0.0 size=N/A time=00:17:39.85 bitrate=N/A speed=19.9x    frame=25693 fps=479 q=-0.0 size=N/A time=00:17:51.61 bitrate=N/A speed=  20x    frame=25981 fps=479 q=-0.0 size=N/A time=00:18:03.62 bitrate=N/A speed=  20x    frame=26277 fps=480 q=-0.0 size=N/A time=00:18:15.96 bitrate=N/A speed=  20x    frame=26532 fps=481 q=-0.0 size=N/A time=00:18:26.60 bitrate=N/A speed=  20x    frame=26824 fps=481 q=-0.0 size=N/A time=00:18:38.78 bitrate=N/A speed=20.1x    frame=27088 fps=482 q=-0.0 size=N/A time=00:18:49.79 bitrate=N/A speed=20.1x    frame=27347 fps=482 q=-0.0 size=N/A time=00:19:00.59 bitrate=N/A speed=20.1x    frame=27600 fps=482 q=-0.0 size=N/A time=00:19:11.15 bitrate=N/A speed=20.1x    frame=27868 fps=482 q=-0.0 size=N/A time=00:19:22.32 bitrate=N/A speed=20.1x    frame=28120 fps=482 q=-0.0 size=N/A time=00:19:32.83 bitrate=N/A speed=20.1x    frame=28402 fps=483 q=-0.0 size=N/A time=00:19:44.60 bitrate=N/A speed=20.1x    frame=28691 fps=483 q=-0.0 size=N/A time=00:19:56.65 bitrate=N/A speed=20.2x    frame=28986 fps=484 q=-0.0 size=N/A time=00:20:08.95 bitrate=N/A speed=20.2x    frame=29273 fps=485 q=-0.0 size=N/A time=00:20:20.92 bitrate=N/A speed=20.2x    frame=29549 fps=485 q=-0.0 size=N/A time=00:20:32.43 bitrate=N/A speed=20.2x    frame=29782 fps=485 q=-0.0 size=N/A time=00:20:42.15 bitrate=N/A speed=20.2x    frame=30048 fps=485 q=-0.0 size=N/A time=00:20:53.25 bitrate=N/A speed=20.2x    frame=30323 fps=486 q=-0.0 size=N/A time=00:21:04.72 bitrate=N/A speed=20.3x    frame=30527 fps=485 q=-0.0 size=N/A time=00:21:13.23 bitrate=N/A speed=20.2x    frame=30732 fps=484 q=-0.0 size=N/A time=00:21:21.78 bitrate=N/A speed=20.2x    frame=30948 fps=484 q=-0.0 size=N/A time=00:21:30.78 bitrate=N/A speed=20.2x    frame=31157 fps=483 q=-0.0 size=N/A time=00:21:39.50 bitrate=N/A speed=20.1x    frame=31309 fps=481 q=-0.0 size=N/A time=00:21:45.84 bitrate=N/A speed=20.1x    frame=31535 fps=481 q=-0.0 size=N/A time=00:21:55.27 bitrate=N/A speed=20.1x    frame=31799 fps=481 q=-0.0 size=N/A time=00:22:06.28 bitrate=N/A speed=20.1x    frame=32044 fps=481 q=-0.0 size=N/A time=00:22:16.50 bitrate=N/A speed=20.1x    frame=32228 fps=480 q=-0.0 size=N/A time=00:22:24.17 bitrate=N/A speed=  20x    frame=32386 fps=479 q=-0.0 size=N/A time=00:22:30.76 bitrate=N/A speed=  20x    frame=32532 fps=478 q=-0.0 size=N/A time=00:22:36.85 bitrate=N/A speed=19.9x    frame=32696 fps=476 q=-0.0 size=N/A time=00:22:43.69 bitrate=N/A speed=19.9x    frame=32841 fps=475 q=-0.0 size=N/A time=00:22:49.74 bitrate=N/A speed=19.8x    frame=33037 fps=474 q=-0.0 size=N/A time=00:22:57.91 bitrate=N/A speed=19.8x    frame=33212 fps=473 q=-0.0 size=N/A time=00:23:05.21 bitrate=N/A speed=19.7x    frame=33368 fps=472 q=-0.0 size=N/A time=00:23:11.72 bitrate=N/A speed=19.7x    frame=33527 fps=471 q=-0.0 size=N/A time=00:23:18.35 bitrate=N/A speed=19.6x    frame=33684 fps=470 q=-0.0 size=N/A time=00:23:24.90 bitrate=N/A speed=19.6x    frame=33796 fps=468 q=-0.0 size=N/A time=00:23:29.57 bitrate=N/A speed=19.5x    frame=33969 fps=467 q=-0.0 size=N/A time=00:23:36.79 bitrate=N/A speed=19.5x    frame=34190 fps=467 q=-0.0 size=N/A time=00:23:46.00 bitrate=N/A speed=19.5x    [Parsed_ssim_10 @ 000002988c368bc0] SSIM Y:0.994663 (22.726849) U:0.994569 (22.651523) V:0.994777 (22.820457) All:0.994666 (22.729621)
[out#0/null @ 0000029889f15880] video:14707KiB audio:268020KiB subtitle:0KiB other streams:0KiB global headers:0KiB muxing overhead: unknown
frame=34227 fps=467 q=-0.0 Lsize=N/A time=00:23:47.55 bitrate=N/A speed=19.5x    
